<!--?xml version="1.0" standalone="no"?-->
              <svg id="sw-js-blob-svg" viewBox="0 0 100 100" xmlns="http://www.w3.org/2000/svg" version="1.1">
                    <defs> 
                        <linearGradient id="sw-gradient" x1="0" x2="1" y1="1" y2="0">
                            <stop id="stop1" stop-color="rgba(248, 117, 55, 1)" offset="0%"></stop>
                            <stop id="stop2" stop-color="rgba(251, 168, 31, 1)" offset="100%"></stop>
                        </linearGradient>
                    </defs>
                <path fill="url(#sw-gradient)" d="M23.6,-29.6C28.7,-23.8,29.7,-14.6,31.2,-5.5C32.8,3.5,34.9,12.4,32.1,19.7C29.3,26.9,21.5,32.5,12.9,35.7C4.3,38.9,-5.3,39.8,-14,37.2C-22.7,34.5,-30.6,28.4,-35.5,20.3C-40.3,12.2,-42.1,2.2,-38.1,-4.3C-34.1,-10.9,-24.2,-14,-16.9,-19.4C-9.5,-24.9,-4.8,-32.7,2.2,-35.3C9.2,-38,18.4,-35.5,23.6,-29.6Z" width="100%" height="100%" transform="translate(50 50)" stroke-width="0" style="transition: all 0.3s ease 0s;"></path>
              </svg>