<!--?xml version="1.0" standalone="no"?-->
              <svg id="sw-js-blob-svg" viewBox="0 0 100 100" xmlns="http://www.w3.org/2000/svg" version="1.1">
                    <defs> 
                        <linearGradient id="sw-gradient" x1="0" x2="1" y1="1" y2="0">
                            <stop id="stop1" stop-color="rgba(248, 117, 55, 1)" offset="0%"></stop>
                            <stop id="stop2" stop-color="rgba(251, 168, 31, 1)" offset="100%"></stop>
                        </linearGradient>
                    </defs>
                <path fill="url(#sw-gradient)" d="M23.7,-28.6C29.8,-23,33.4,-14.8,34.6,-6.4C35.7,2,34.4,10.6,30.7,18.4C27,26.2,20.8,33.3,12.7,37.4C4.5,41.5,-5.7,42.6,-13.2,38.8C-20.7,34.9,-25.5,26.2,-30.8,17.5C-36.2,8.8,-42.1,0.2,-42.1,-8.7C-42.1,-17.6,-36.1,-26.8,-28.1,-32C-20.1,-37.3,-10.1,-38.5,-0.7,-37.8C8.8,-37,17.5,-34.1,23.7,-28.6Z" width="100%" height="100%" transform="translate(50 50)" stroke-width="0" style="transition: all 0.3s ease 0s;"></path>
              </svg>