<!--?xml version="1.0" standalone="no"?-->
              <svg id="sw-js-blob-svg" viewBox="0 0 100 100" xmlns="http://www.w3.org/2000/svg" version="1.1">
                    <defs> 
                        <linearGradient id="sw-gradient" x1="0" x2="1" y1="1" y2="0">
                            <stop id="stop1" stop-color="rgba(248, 117, 55, 1)" offset="0%"></stop>
                            <stop id="stop2" stop-color="rgba(251, 168, 31, 1)" offset="100%"></stop>
                        </linearGradient>
                    </defs>
                <path fill="url(#sw-gradient)" d="M27.3,-31.1C34.4,-26.5,38.7,-17,39.2,-7.9C39.6,1.2,36.2,10.1,31.3,17.5C26.3,24.9,19.9,30.9,12.2,33.7C4.6,36.5,-4.2,36.2,-12.5,33.5C-20.8,30.9,-28.6,25.9,-31.7,19C-34.8,12.1,-33.3,3.3,-31.3,-5.1C-29.3,-13.5,-26.9,-21.3,-21.6,-26.3C-16.3,-31.4,-8.2,-33.6,0.9,-34.7C10,-35.8,20.1,-35.8,27.3,-31.1Z" width="100%" height="100%" transform="translate(50 50)" stroke-width="0" style="transition: all 0.3s ease 0s;"></path>
              </svg>