<!--?xml version="1.0" standalone="no"?-->
              <svg id="sw-js-blob-svg" viewBox="0 0 100 100" xmlns="http://www.w3.org/2000/svg" version="1.1">
                    <defs> 
                        <linearGradient id="sw-gradient" x1="0" x2="1" y1="1" y2="0">
                            <stop id="stop1" stop-color="rgba(248, 117, 55, 1)" offset="0%"></stop>
                            <stop id="stop2" stop-color="rgba(251, 168, 31, 1)" offset="100%"></stop>
                        </linearGradient>
                    </defs>
                <path fill="url(#sw-gradient)" d="M26.4,-32C32.4,-26.5,34,-16.4,33.2,-7.8C32.3,0.7,29,7.8,25.4,15.2C21.8,22.7,17.9,30.5,11.2,34.5C4.6,38.4,-4.7,38.5,-12,34.9C-19.2,31.4,-24.4,24.2,-28.3,16.7C-32.3,9.2,-35.1,1.2,-33.6,-5.8C-32.2,-12.8,-26.6,-18.9,-20.3,-24.3C-14,-29.8,-7,-34.5,1.6,-36.5C10.2,-38.4,20.5,-37.5,26.4,-32Z" width="100%" height="100%" transform="translate(50 50)" stroke-width="0" style="transition: all 0.3s ease 0s;"></path>
              </svg>