<?xml version="1.0" encoding="UTF-8"?>
<svg id="Layer_1" data-name="Layer 1" xmlns="http://www.w3.org/2000/svg" xmlns:xlink="http://www.w3.org/1999/xlink" viewBox="0 0 500 500">
  <defs>
    <style>
      .cls-1 {
        fill: url(#linear-gradient-2);
      }

      .cls-2 {
        fill: #fff;
      }

      .cls-3 {
        fill: url(#linear-gradient);
      }
    </style>
    <linearGradient id="linear-gradient" x1="255.05" y1="273.36" x2="160.78" y2="276.15" gradientUnits="userSpaceOnUse">
      <stop offset="0" stop-color="#29abe2"/>
      <stop offset="1" stop-color="#0071bc"/>
    </linearGradient>
    <linearGradient id="linear-gradient-2" x1="204.38" y1="-396.22" x2="167.93" y2="-326.57" gradientTransform="translate(-7.49 509.07) rotate(20.74)" xlink:href="#linear-gradient"/>
  </defs>
  <rect class="cls-2" x="-4.16" y="-15.76" width="507.8" height="547.21"/>
  <g>
    <path class="cls-3" d="m258.98,299.18c-1.75,1.07-3.73,1.77-5.83,2.04-3.9.5-7.76-.55-10.87-2.95-.14-.11-.27-.21-.41-.33.41-.42.8-.86,1.16-1.33.23-.29.44-.6.65-.9.6-.92,1.1-1.89,1.49-2.9.84-2.23,1.13-4.64.82-7.07-.36-2.79-1.48-5.36-3.22-7.48-.61-.74-1.3-1.42-2.05-2.04-.11-.09-.22-.18-.33-.26l-11.69-9.04-2.27-1.75-22.69-15.23c-1.18-.91-2.46-1.62-3.78-2.12-5.9-2.23-12.82-.48-16.87,4.76-2.4,3.11-3.45,6.97-2.95,10.87.5,3.9,2.49,7.37,5.6,9.78l34.74,24.54h0s1.92,1.48,1.92,1.48c.82.63,1.69,1.17,2.6,1.62,1.92,3.56,4.6,6.79,8.01,9.42,2.39,1.85,4.99,3.3,7.73,4.33.66.25,1.34.48,2.02.68-1.44.59-2.93,1.06-4.46,1.42-1.01.24-2.04.43-3.09.56-4.94.63-9.84.04-14.37-1.67-2.74-1.04-5.35-2.49-7.73-4.33l-36.66-26.02c-6.32-4.89-10.37-11.95-11.38-19.87-1.02-7.93,1.12-15.77,6.01-22.1,10.09-13.05,28.92-15.47,41.97-5.38l22.69,15.23,2.27,1.76,11.7,9.04c.11.08.22.17.32.26.76.6,1.48,1.23,2.16,1.9,7.58,7.31,10.57,17.93,8.46,27.82-.38,1.79-.93,3.55-1.65,5.27Z"/>
    <path class="cls-1" d="m329.82,233.93l-54.86,70.98c-4.89,6.32-11.94,10.36-19.87,11.38-2.62.33-5.22.33-7.77,0-1.55-.21-3.08-.53-4.58-.98-.68-.2-1.35-.43-2.02-.68-2.74-1.04-5.35-2.49-7.73-4.33-3.4-2.63-6.08-5.85-8.01-9.42-.84-1.56-1.54-3.18-2.09-4.85-1.03-3.12-1.54-6.4-1.51-9.68.02-3.49.66-7,1.93-10.34.9-2.37,2.11-4.66,3.65-6.8l11.68,9.03c.12.09.24.19.36.29-3.57,5.41-3.12,12.48.87,17.38.59.73,1.27,1.42,2.02,2.04.13.11.27.22.41.33,3.11,2.4,6.98,3.45,10.87,2.95,2.1-.27,4.08-.97,5.83-2.04,1.51-.92,2.84-2.12,3.96-3.56l.35-.45,54.51-70.52c4.97-6.42,3.78-15.69-2.65-20.65-3.11-2.41-6.97-3.46-10.88-2.96-3.9.5-7.37,2.49-9.78,5.6l-42.73,55.28c-.11-.09-.22-.17-.33-.26l-11.7-9.04,42.73-55.28c4.89-6.32,11.94-10.36,19.87-11.38,7.93-1.02,15.78,1.12,22.1,6,13.05,10.09,15.47,28.92,5.38,41.97Z"/>
  </g>
</svg>